<svg fill="none" viewBox="0 0 48 48" xmlns="http://www.w3.org/2000/svg"><path d="m31.8296 14h-15.6593c-2.851 0-5.1703 2.436-5.1703 5.4302v9.1396c0 2.9942 2.3193 5.4302 5.1703 5.4302h15.6593c2.851 0 5.1704-2.436 5.1704-5.4302v-9.1396c0-2.9942-2.3194-5.4302-5.1704-5.4302zm4.1092 14.5698c0 2.3814-1.8434 4.3191-4.1092 4.3191h-15.6593c-2.2657 0-4.1091-1.9377-4.1091-4.3191v-9.1396c0-2.3814 1.8434-4.3191 4.1091-4.3191h15.6593c2.2658 0 4.1092 1.9377 4.1092 4.3191z" fill="#000"/><path d="m28.7014 23.799-7.3516-4.5085c-.1632-.1001-.3669-.1017-.5319-.0027-.1651.099-.2669.2829-.2669.482v9.0159c0 .1991.1018.383.2666.482.0819.0491.1731.0736.264.0736.0928 0 .1853-.0255.2682-.0763l7.3516-4.5073c.1624-.0996.2625-.2822.2625-.4794s-.0998-.3798-.2625-.4793zm-7.0892 4.0174v-7.0773l5.771 3.5392z" fill="#000"/><circle cx="24" cy="24" r="23.5" stroke="#000"/></svg>